<svg width="507" height="188" viewBox="0 0 507 188" fill="none" xmlns="http://www.w3.org/2000/svg">
<path d="M362.869 20C357.076 20.0265 353.031 22.1562 349.84 25.8477C346.649 29.5391 344.411 34.9027 342.922 41.1719C339.943 53.7102 339.947 91.7088 339.777 104.584C339.747 106.991 339.717 109.503 339.719 112.084C339.722 124.563 340.377 138.647 343.697 149.356C345.357 154.71 347.67 159.188 350.762 162.26C353.853 165.332 357.673 167.095 362.869 167.117C363.321 167.117 363.78 167.095 364.25 167.065L366.25 166.947V167.118H371.609C379.579 167.118 385.937 160.759 385.937 152.789V74.7172C387.128 82.4015 393.741 88.2465 401.769 88.2465H424.435C432.228 88.2465 438.687 82.738 440.148 75.3871V152.789C440.148 160.759 446.507 167.118 454.476 167.118H459.836V166.947L461.836 167.065C462.306 167.095 462.765 167.117 463.217 167.117C468.413 167.095 472.232 165.332 475.324 162.26C478.416 159.188 480.729 154.71 482.388 149.356C485.708 138.647 486.363 124.563 486.367 112.084C486.368 109.503 486.337 106.991 486.308 104.584C486.138 91.7088 486.143 53.7102 483.164 41.1719C481.674 34.9027 479.437 29.5391 476.246 25.8477C473.055 22.1562 469.009 20.0249 463.217 20C462.766 20.0002 462.311 20.0151 461.838 20.045L459.836 20.1641V20H454.476H422.301H418.025H408.06H403.785H371.609H366.25V20.1641L364.248 20.045C363.774 20.0185 363.319 20.0004 362.869 20Z" fill="#FFD140"/>
<path d="M298.308 20.793C289.432 20.793 282.285 27.9395 282.285 36.8164V65.1406H334.758V36.8164C334.758 27.9395 327.611 20.793 318.734 20.793H298.308ZM282.285 71.4551V150.223C282.285 159.1 289.432 166.246 298.308 166.246H318.734C327.611 166.246 334.758 159.1 334.758 150.223V71.4551H282.285Z" fill="#FFD140"/>
<path d="M220.459 20.0078C217.878 20.0067 215.366 20.0381 212.959 20.0664C200.084 20.2365 184.085 20.232 171.547 23.211C165.278 24.7005 159.914 26.9379 156.222 30.1289C152.531 33.32 150.4 37.3655 150.375 43.1582C150.375 43.6085 150.391 44.0635 150.42 44.5371L150.539 46.5391H150.375V51.8984V84.0743V88.3496V98.3144V102.59V134.766V140.125H150.539L150.42 142.127C150.391 142.601 150.375 143.056 150.375 143.506C150.4 149.299 152.531 153.344 156.222 156.535C159.914 159.726 165.278 161.964 171.547 163.453C184.085 166.432 200.084 166.428 212.959 166.598C215.366 166.628 217.878 166.657 220.459 166.656C232.938 166.652 247.022 165.997 257.73 162.678C263.084 161.018 267.563 158.705 270.635 155.613C273.707 152.521 275.469 148.702 275.492 143.506C275.492 143.054 275.469 142.595 275.439 142.125L275.322 140.125H275.492V134.766C275.492 126.796 269.133 120.437 261.164 120.437H209.681V116.91H209.771V115.912V70.7519V69.7538H209.681V66.2265H261.164C269.133 66.2266 275.492 59.8678 275.492 51.8984V46.539H275.322L275.439 44.539C275.469 44.0688 275.492 43.6103 275.492 43.1582C275.469 37.9621 273.706 34.1426 270.634 31.0508C267.562 27.959 263.084 25.6462 257.73 23.9863C247.022 20.6667 232.938 20.0116 220.459 20.0078Z" fill="#FFD140"/>
<path d="M89.5234 20.4735C86.9459 20.4725 84.4281 20.5 82.0234 20.5321C69.141 20.7022 53.1784 20.7087 40.7441 23.663C34.527 25.1402 29.2415 27.3531 25.6543 30.454C22.0671 33.555 20.0227 37.4083 20 43.0556C20.0004 43.4853 20.0261 43.9277 20.0527 44.4052L20.1933 47.0049H20V51.7958V98.2118V102.479C20 110.144 26.0945 116.239 33.7598 116.239H85.8184V122.018H33.7598C26.0949 122.018 20 128.113 20 135.778V140.577H20.207L20.0527 143.183C20.0236 143.643 20.0004 144.084 20 144.518V144.534C20.0268 150.112 22.0699 153.99 25.6621 157.133C29.2579 160.28 34.544 162.566 40.7578 164.096C53.1853 167.157 69.1434 167.217 81.9648 167.047C94.8474 166.877 110.818 166.873 123.252 163.918C129.469 162.441 134.745 160.22 138.332 157.12C141.919 154.019 143.964 150.165 143.986 144.518C143.986 144.09 143.962 143.643 143.936 143.168L143.795 140.577H143.986V135.778V102.479V84.977C143.986 77.3119 137.892 71.2172 130.227 71.2172H78.1777V65.5551H130.227C137.891 65.5551 143.986 59.4605 143.986 51.7954V47.0043H143.779L143.936 44.3988C143.965 43.9361 143.986 43.492 143.986 43.0551C143.966 37.992 142.272 34.3446 139.293 31.3461C136.314 28.3477 131.923 26.0647 126.625 24.4223C116.029 21.1375 101.984 20.4788 89.5234 20.4735ZM111.988 31.5673C113.239 31.5674 114.478 31.8139 115.633 32.2927C116.789 32.7715 117.838 33.4731 118.723 34.3576C119.607 35.2421 120.309 36.2922 120.787 37.4478C121.266 38.6034 121.512 39.842 121.512 41.0927C121.511 43.6184 120.508 46.0406 118.722 47.8265C116.936 49.6124 114.514 50.6159 111.988 50.6162C110.738 50.6163 109.499 50.3701 108.343 49.8915C107.188 49.413 106.138 48.7115 105.253 47.8272C104.369 46.9429 103.667 45.893 103.188 44.7375C102.709 43.582 102.463 42.3435 102.463 41.0927C102.463 39.8418 102.709 38.6031 103.188 37.4473C103.666 36.2916 104.368 35.2415 105.252 34.3569C106.137 33.4724 107.187 32.7708 108.343 32.2921C109.499 31.8135 110.737 31.5672 111.988 31.5673Z" fill="#3775A8"/>
</svg>
